<?xml version="1.0" encoding="UTF-8" standalone="no"?>
<svg width="410px" height="243px" viewBox="0 0 410 243" version="1.1" xmlns="http://www.w3.org/2000/svg" xmlns:xlink="http://www.w3.org/1999/xlink" xmlns:sketch="http://www.bohemiancoding.com/sketch/ns">
    <!-- Generator: Sketch 3.5.2 (25235) - http://www.bohemiancoding.com/sketch -->
    <title>Page 1</title>
    <desc>Created with Sketch.</desc>
    <defs>
        <path id="path-1" d="M0,0.213380597 L410,0.213380597 L410,243 L0,243"></path>
        <path id="path-3" d="M0,0.213380597 L410,0.213380597 L410,243 L0,243"></path>
        <path id="path-5" d="M0,0.213380597 L410,0.213380597 L410,243 L0,243"></path>
        <path id="path-7" d="M0,0.213380597 L410,0.213380597 L410,243 L0,243 L0,0.213380597 Z"></path>
        <path id="path-9" d="M0,0.213380597 L410,0.213380597 L410,243 L0,243 L0,0.213380597 Z"></path>
        <path id="path-11" d="M0,0.213380597 L410,0.213380597 L410,243 L0,243 L0,0.213380597 Z"></path>
    </defs>
    <g id="Page-1" stroke="none" stroke-width="1" fill="none" fill-rule="evenodd" sketch:type="MSPage">
        <g id="Desktop-HD" sketch:type="MSArtboardGroup" transform="translate(-516.000000, -188.000000)">
            <g id="Page-1" sketch:type="MSLayerGroup" transform="translate(516.000000, 188.000000)">
                <path d="M129.789334,48.4711254 L125.165211,48.4711254 L125.165211,51.2456776 L129.65468,51.2456776 L129.65468,52.8832075 L125.165211,52.8832075 L125.165211,56.7415881 L129.789334,56.7415881 L129.789334,58.3797224 L123.424975,58.3797224 L123.424975,46.8335955 L129.789334,46.8335955 L129.789334,48.4711254 Z" id="Fill-1" fill="#020302" sketch:type="MSShapeGroup"></path>
                <g id="Group-77">
                    <path d="M138.596424,48.5533948 L137.184672,49.3912007 C136.920194,48.9317978 136.669001,48.6325813 136.429885,48.4935515 C136.180504,48.3333649 135.859267,48.2541784 135.466778,48.2541784 C134.982507,48.2541784 134.582168,48.3919993 134.26395,48.6658276 C133.94392,48.9348201 133.785717,49.2745366 133.785717,49.682559 C133.785717,50.2465366 134.204171,50.6992903 135.040474,51.0438425 L136.191373,51.5147306 C137.1261,51.8931336 137.81205,52.3549545 138.245599,52.9026112 C138.678545,53.4472455 138.89532,54.1170067 138.89532,54.9094769 C138.89532,55.971544 138.540872,56.8492455 137.834392,57.5419769 C137.121873,58.2401485 136.237264,58.5889321 135.182374,58.5889321 C134.181829,58.5889321 133.353979,58.2927381 132.702448,57.699141 C132.059973,57.1049396 131.658427,56.2707604 131.500224,55.1935813 L133.262801,54.8049022 C133.341903,55.4825216 133.480784,55.9522007 133.681255,56.2109172 C134.039929,56.7090067 134.562845,56.958656 135.250003,56.958656 C135.792242,56.958656 136.243302,56.7761037 136.601976,56.4128127 C136.960651,56.0495216 137.139988,55.5870963 137.139988,55.0291634 C137.139988,54.8049022 137.108589,54.5987754 137.045791,54.4132007 C136.9842,54.2246037 136.887588,54.054141 136.754141,53.8957679 C136.62311,53.7404172 136.452831,53.5923201 136.243302,53.4557082 C136.034377,53.3184918 135.784996,53.1867157 135.496365,53.0627978 L134.383508,52.5991634 C132.804495,51.9306112 132.01529,50.9537754 132.01529,49.667447 C132.01529,48.8000216 132.345585,48.0746485 133.008589,47.4913276 C133.67099,46.9037754 134.495216,46.6093948 135.48127,46.6093948 C136.810901,46.6093948 137.849487,47.2567903 138.596424,48.5533948" id="Fill-2" fill="#020302" sketch:type="MSShapeGroup"></path>
                    <path d="M144.393124,48.4711254 L144.393124,58.3797224 L142.652888,58.3797224 L142.652888,48.4711254 L140.00087,48.4711254 L140.00087,46.8335955 L147.037292,46.8335955 L147.037292,48.4711254 L144.393124,48.4711254 Z" id="Fill-4" fill="#020302" sketch:type="MSShapeGroup"></path>
                    <path d="M148.815327,56.6445694 C149.05867,56.6445694 149.271218,56.7370545 149.450555,56.9214201 C149.629289,57.10095 149.719259,57.317353 149.719259,57.5718381 C149.719259,57.8263231 149.629289,58.0427261 149.450555,58.222256 C149.260349,58.3975545 149.044178,58.4839948 148.800231,58.4839948 C148.670408,58.4839948 148.549642,58.4604201 148.43733,58.4120619 C148.325018,58.3661216 148.226594,58.3014425 148.143265,58.2180246 C148.058125,58.1370246 147.992308,58.0384948 147.944605,57.9278754 C147.89811,57.8142336 147.873957,57.694547 147.873957,57.5645843 C147.873957,57.3100993 147.963928,57.0930918 148.143265,56.9135619 C148.326829,56.7340321 148.55085,56.6445694 148.815327,56.6445694" id="Fill-6" fill="#020302" sketch:type="MSShapeGroup"></path>
                    <path d="M189.13614,64.9069321 C189.123459,64.9172082 189.111987,64.9280888 189.09991,64.9383649 C189.09991,64.9383649 189.110175,64.9589172 189.13614,64.9069321" id="Fill-8" fill="#020302" sketch:type="MSShapeGroup"></path>
                    <path d="M209.204402,17.5068806 C209.204402,17.5068806 209.342679,17.5068806 209.551604,17.5026493 C209.451368,17.4730299 209.335433,17.4669851 209.204402,17.5068806" id="Fill-10" fill="#020302" sketch:type="MSShapeGroup"></path>
                    <path d="M208.107848,19.1153955 C208.107848,19.1153955 208.125359,19.1208358 208.155551,19.1280896 C207.89832,18.9050373 208.107848,19.1153955 208.107848,19.1153955" id="Fill-12" fill="#020302" sketch:type="MSShapeGroup"></path>
                    <path d="M214.436703,5.45655896 C214.354582,5.40638731 214.258573,5.35500672 214.156526,5.30241716 C214.156526,5.30241716 214.277292,5.38039478 214.436703,5.45655896" id="Fill-14" fill="#020302" sketch:type="MSShapeGroup"></path>
                    <g id="Group-18">
                        <mask id="mask-2" sketch:name="Clip 17" fill="white">
                            <use xlink:href="#path-1"></use>
                        </mask>
                        <g id="Clip-17"></g>
                        <path d="M223.563097,61.6067261 C222.992479,62.9867485 222.992479,65.699644 222.708075,66.5555843 C222.423068,67.4127336 221.661639,67.7458007 220.853112,68.3170321 C220.702758,68.4234201 220.581389,68.5261813 220.478738,68.6241067 C220.534894,68.2052037 220.597692,67.7717933 220.615807,67.3649799 C220.66351,66.2702709 219.950991,64.4145246 219.333274,63.4153231 C218.714349,62.4161216 218.429342,60.17895 217.763318,58.5613679 C217.098502,56.9431813 216.622685,55.2778455 216.527884,54.278644 C216.433082,53.2788381 216.480181,52.7553604 216.480181,52.7553604 C217.194511,52.9935246 218.99996,52.3273903 218.99996,52.3273903 C219.143068,52.9935246 220.189504,54.1353828 220.615807,54.7543679 C221.043922,55.373353 221.187633,56.6101142 221.851845,58.0378903 C222.517869,59.4656664 224.13432,60.2267037 223.563097,61.6067261 M230.205218,19.853644 C229.920814,19.0400172 228.692626,17.7530843 228.276588,16.9019799 C227.861757,16.0502709 228.163068,16.2956888 228.163068,15.70995 C228.163068,15.1230022 228.35267,15.1230022 227.804393,13.9116291 C227.255513,12.7008604 227.501271,11.3951888 227.501271,11.3951888 C227.804393,11.1685097 227.841831,10.8275843 227.766352,10.0514351 C227.691477,9.2758903 227.369032,9.38953209 226.936087,9.02986791 C226.499518,8.67020373 225.365527,7.44009179 225.253215,7.1185097 C225.139091,6.79753209 225.139091,6.15376343 225.233289,5.60489776 C225.32809,5.05603209 225.631212,5.22649478 225.876367,3.46686045 C226.121521,1.70662164 225.611286,0.590151493 225.04429,0.287308209 C224.477898,-0.0155350746 224.497221,0.666315672 224.17538,1.29074104 C223.853539,1.91516642 223.720697,1.82086791 223.645218,2.16118881 C223.570343,2.5015097 223.570343,2.80435299 223.229784,2.95607687 C222.921227,3.09329328 222.239504,2.79468134 222.115115,2.73786045 C222.10968,2.71005448 222.103038,2.68345746 222.095189,2.6526291 C221.774555,1.27200224 220.678605,1.00724104 220.678605,1.00724104 C220.678605,1.00724104 219.676853,0.760614179 220.60373,1.02537537 C221.528797,1.29074104 221.830711,2.95607687 221.377236,2.91799478 C221.13027,2.89744254 220.962405,2.78682313 220.859754,2.69071119 C220.908664,2.83215896 220.850093,3.00262164 220.810844,3.06971866 C220.752876,3.16401716 220.565085,3.33447985 220.487795,2.88051716 C220.41292,2.42595 219.562729,0.741270896 219.562729,0.741270896 C217.843024,1.27200224 218.182979,4.35604701 218.182979,4.35604701 C218.182979,4.35604701 218.315218,4.75318881 217.919106,4.43160672 C217.521183,4.11002463 216.652876,4.05380821 216.595513,4.05380821 C216.538753,4.05380821 215.593156,4.05380821 216.500711,4.07194254 C217.40887,4.09128582 216.727751,4.71571119 216.727751,4.71571119 C215.820196,4.14810672 214.89513,4.12876343 214.89513,4.12876343 C214.89513,4.12876343 214.081168,4.22366642 214.837766,4.20492761 C215.593156,4.18618881 216.028517,4.98047239 216.028517,4.98047239 C215.612479,4.77253209 214.686205,4.43160672 214.686205,4.43160672 C215.065409,4.65828582 215.215763,5.11285299 215.215763,5.11285299 C215.215763,5.11285299 215.593156,5.37761418 215.120962,5.0935097 C214.648163,4.8100097 213.985763,4.86743507 213.985763,4.86743507 C213.985763,4.86743507 213.192331,4.84748731 213.948325,4.92365149 C214.70432,4.99921119 215.30996,5.49125597 215.026764,5.58615896 C214.87158,5.63753955 214.627633,5.54807687 214.436823,5.45680075 C214.886072,5.72700224 214.994761,5.9440097 214.307604,6.04012164 C213.912096,6.0951291 213.549798,6.07880821 213.279283,6.04737537 C213.626485,6.22811418 213.760535,6.62646493 213.760535,6.62646493 C212.361462,6.60772612 212.040225,7.47817388 212.040225,7.47817388 C212.664585,7.2508903 213.627088,8.23497985 214.459769,8.29180075 C215.291242,8.34862164 214.799725,8.50034552 214.38429,8.78445 C213.968252,9.06795 212.738252,8.50034552 212.682096,8.50034552 C212.626543,8.50034552 212.324025,8.40544254 212.682096,8.55656194 C213.042582,8.70828582 213.173613,9.16285299 213.173613,9.16285299 C212.834261,9.16285299 212.324025,8.53782313 212.324025,8.53782313 C212.474378,9.2003306 213.325174,9.74919627 213.325174,9.74919627 C212.549857,9.86223358 211.680343,8.84066642 211.680343,8.84066642 C211.699666,9.31397239 213.17482,10.5434799 213.17482,10.5434799 C212.040225,10.5434799 212.286588,10.8275843 212.871698,10.7514201 C213.457412,10.6764649 214.629445,10.9787037 213.400652,10.9412261 C212.17186,10.903144 210.414113,11.5843903 210.414113,11.5843903 C212.08189,11.1425172 213.112626,12.18645 213.3608,12.4772037 C213.354158,12.4759948 213.349931,12.4747858 213.349931,12.4747858 C212.361462,12.3037187 210.054835,12.9849649 210.054835,12.9849649 C210.054835,12.9849649 209.847118,12.6627784 210.074158,13.0792634 C210.300594,13.495144 211.397751,13.6474724 211.397751,13.6474724 C212.078267,13.6281291 211.624791,13.9309724 211.624791,13.9309724 C210.452155,13.8741515 209.563922,14.2338157 209.563922,14.2338157 C210.300594,14.1014351 210.452155,14.7826813 210.452155,14.7826813 C208.485483,14.6877784 208.580284,15.3309425 208.580284,15.3309425 C209.129165,15.1042634 209.658119,15.70995 209.658119,15.70995 C209.658119,15.70995 210.074158,15.6343903 209.582641,15.7286888 C209.091728,15.8235918 209.261404,15.9366291 209.261404,15.9366291 C209.431683,15.8610694 209.394246,16.0690097 209.394246,16.0690097 C209.091728,16.1639127 209.109842,16.4854948 209.109842,16.4854948 C209.374923,16.3531142 209.544599,16.5423157 209.544599,16.5423157 C209.261404,16.5991366 209.241477,16.7883381 209.241477,16.7883381 C209.619474,16.6178754 210.300594,17.166741 211.18943,17.128659 C212.078267,17.0911813 211.52999,17.3178604 210.886912,17.4127634 C210.478723,17.4726067 209.911124,17.4943679 209.551242,17.5028306 C209.788546,17.5723455 209.934069,17.776659 209.970903,17.8328754 C209.955203,17.8310619 209.939504,17.829853 209.922596,17.8292485 C209.431683,17.7911664 208.845969,18.2826067 208.845969,18.2826067 C209.166602,18.1314873 209.261404,18.2638679 209.885159,18.2638679 C210.508915,18.2638679 209.790358,18.4911515 209.166602,18.5292336 C208.542243,18.5667112 208.580284,18.7939948 208.580284,18.7939948 C208.580284,18.7939948 208.485483,18.9257709 208.675689,18.7559127 C208.864084,18.5860545 208.92024,18.775256 208.92024,18.775256 C208.807928,18.8314724 208.77049,18.9451142 208.77049,18.9451142 C208.958885,18.8888978 209.336278,19.0968381 209.336278,19.0968381 C208.919636,19.3059873 208.325468,19.1730022 208.155792,19.1282709 C208.16485,19.1367336 208.173303,19.1439873 208.184776,19.153659 C208.486087,19.4184201 209.772243,19.5320619 209.772243,19.5320619 C210.112199,19.5320619 209.97996,19.7968231 209.97996,19.7968231 C209.394246,19.7400022 208.807928,20.2133082 208.807928,20.2133082 C209.356205,20.32695 210.357353,20.0047634 210.357353,20.0047634 C210.943672,19.853644 210.811433,20.0990619 210.678591,20.2133082 C210.546956,20.32695 210.357353,20.2133082 210.376676,20.4025097 C210.395395,20.5911067 210.546956,20.5348903 209.847118,20.8945545 C209.148487,21.2542187 209.298841,21.3104351 209.298841,21.3104351 C209.563922,21.2348754 209.506558,21.4240769 209.506558,21.4240769 C209.374923,21.6700993 208.807928,21.8967784 208.807928,21.8967784 C209.109842,21.783741 209.073009,22.0491067 209.073009,22.0491067 C208.864688,22.3513455 207.673937,23.1843157 207.673937,23.1843157 C207.861728,23.0706739 207.939018,23.297353 207.939018,23.297353 C207.636499,23.3735172 207.844216,23.5621142 207.844216,23.5621142 C208.032611,23.4109948 208.10809,23.7519201 208.10809,23.7519201 C207.899769,24.1678007 207.371418,24.3007858 207.371418,24.3007858 C207.975851,24.470644 208.71373,24.1865396 208.71373,24.1865396 C208.826043,24.8683903 208.239725,25.0575918 208.239725,25.0575918 C208.788605,25.0195097 209.073009,24.470644 209.073009,24.470644 C209.431683,24.092241 209.356205,24.6223679 209.356205,24.6223679 C208.958885,25.3979127 207.957736,25.5302933 207.957736,25.5302933 C206.326794,24.621159 205.785159,24.6791888 204.549121,24.8218455 C203.311875,24.9645022 200.412891,24.5836813 200.412891,24.5836813 C194.756823,24.0602037 193.140373,28.8664052 190.335586,33.1019799 C187.531404,37.33695 189.242052,42.8098903 189.051845,45.1413604 C188.862243,47.4734351 188.624334,49.9953157 187.815807,51.661256 C187.008487,53.3265918 185.34373,56.277047 184.345601,57.7997261 C183.346867,59.3230097 182.682655,60.4654724 182.159135,62.1302037 C181.636823,63.7955396 179.877869,65.699644 179.877869,65.699644 C181.06862,65.3587187 181.894054,64.7252261 182.267825,64.3927634 C182.151286,65.1955097 182.110829,66.2702709 182.110829,66.2702709 C183.157265,66.0321067 183.869784,65.2710694 183.869784,65.2710694 C184.060594,66.5084351 182.064334,68.3641813 182.064334,68.3641813 C183.319695,68.0401813 186.542935,65.5382485 187.469209,64.8062261 C187.458944,65.0800545 187.5308,65.3188231 187.5308,65.3188231 C190.240181,63.7006366 189.28915,64.3196216 189.28915,64.3196216 C189.214275,64.6968157 189.165365,64.8479351 189.136381,64.9071739 C190.015557,64.1576216 190.146588,63.9097858 190.155041,63.8312037 C190.217839,64.0488157 190.560814,65.2589799 190.906205,66.5084351 C191.286013,67.8884575 191.190608,70.601353 190.763097,71.6005545 C190.335586,72.599756 190.335586,73.9320246 191.048708,74.5510097 C191.761831,75.1693903 190.573495,75.122241 190.573495,75.122241 C189.764364,75.0744873 189.336853,77.2633007 189.336853,77.2633007 C188.908738,81.4033679 192.75996,80.1182485 192.75996,80.1182485 C193.853495,79.1668007 194.61432,76.0259351 193.996602,75.0744873 C193.377074,74.1224351 194.233303,73.7893679 193.996602,72.6475097 C193.758694,71.505047 193.615586,71.2197336 193.377074,69.8397112 C193.140373,68.4590843 193.044968,65.5092336 192.949563,64.0337037 C192.855365,62.5587784 193.472479,60.7979351 193.663289,59.1319948 C193.853495,57.466659 193.235174,58.3232037 193.805792,57.466659 C194.375807,56.6101142 194.945822,55.2778455 195.658944,54.2308903 C196.37267,53.1839351 196.182464,53.0890321 196.324968,52.5655545 C196.468679,52.0414724 196.98918,50.3283828 197.562214,49.9004127 C198.130417,49.4718381 199.271654,48.8057037 199.271654,48.8057037 C200.31809,49.1865246 201.981639,52.3745396 202.743672,54.4690545 C203.503289,56.5623604 202.885571,58.6562709 202.790166,60.1311963 C202.695969,61.6067261 201.886838,63.177159 201.268517,63.9388007 C200.651404,64.7004425 201.268517,65.4143306 201.363922,66.889256 C201.458723,68.3641813 201.316219,68.9825619 201.792037,70.6485022 C202.266647,72.3138381 202.647663,76.1685918 203.026867,77.8816813 C203.408487,79.5953754 202.885571,79.8800843 203.217677,80.8321366 C203.550387,81.7841888 204.739327,82.831144 204.739327,82.831144 C206.259769,83.8780993 209.112258,82.7833903 209.112258,82.7833903 C210.015586,82.5458306 209.682876,82.022353 209.682876,82.022353 C209.255365,80.6423306 207.971624,80.0710993 207.448105,79.7857858 C206.925792,79.4998679 206.831595,79.5476216 206.069563,78.2625022 C205.309342,76.9773828 204.357707,70.8866664 204.501418,69.69645 C204.64513,68.5068381 205.499548,66.1276142 205.690962,64.9380022 C205.87996,63.7483903 206.02186,63.2249127 206.783892,61.9397933 C207.544113,60.6552784 207.877427,61.3691664 208.352037,58.7517784 C208.82725,56.1343903 209.255365,52.8508679 209.255365,52.8508679 C209.920785,52.8508679 210.015586,52.5655545 210.4908,53.0890321 C210.966617,53.6125097 211.488929,54.7066142 212.106647,57.0380843 C212.725571,59.370159 213.866205,60.4654724 214.578723,61.5595769 C215.292449,62.6536813 216.005571,63.5102261 216.100976,65.1284127 C216.195778,66.7465993 217.146809,69.0303157 217.811624,69.5060396 C217.919106,69.5840172 218.035645,69.7677784 218.153392,70.0252858 C217.725881,70.0772709 217.384113,70.0778754 217.384113,70.0778754 C214.627029,71.9336216 217.57432,74.3128455 218.762052,74.4561067 C218.972788,74.4808903 219.189563,74.4379724 219.40513,74.3503231 C219.503554,74.7740619 219.577825,75.1035022 219.618281,75.2648978 C219.80728,76.0259351 219.570579,76.7398231 219.664776,77.7867784 C219.760785,78.8331291 220.426205,79.024144 220.853112,79.4521142 C221.283038,79.8800843 220.996823,79.8329351 220.758311,80.4035619 C220.52161,80.9753978 220.426205,81.6415321 220.426205,81.6415321 C221.661639,83.8303455 224.656632,82.7833903 224.656632,82.7833903 C225.749563,82.5452261 225.085351,81.3556142 224.656632,80.4996739 C224.229725,79.6419201 223.326396,78.7859799 223.040785,78.215353 C222.755174,77.6441216 222.613274,76.3590022 222.042052,75.2648978 C221.764894,74.732353 221.47566,73.7252933 221.214202,72.7563157 C221.420108,72.4994127 221.575895,72.2824052 221.661639,72.1717858 C221.994349,71.7432112 223.469504,70.9344201 223.563097,69.9823679 C223.658502,69.0303157 225.132449,67.4127336 225.89267,66.4129276 C226.653495,65.4143306 226.937898,64.6526888 227.651624,63.5102261 C228.364747,62.3683679 227.984334,61.8920396 227.224113,60.3222112 C226.464496,58.7517784 226.558694,57.2762485 226.558694,54.7066142 C226.558694,52.1369799 226.369091,50.8047112 225.89267,48.9483604 C225.418664,47.0926142 225.370962,47.3785321 225.797265,47.0448604 C226.22538,46.7123978 226.765807,45.9477336 226.765807,45.9477336 C227.160711,45.0772858 226.896838,44.3773007 226.878119,42.8068679 C226.858797,41.2358306 226.291801,40.1006216 225.894482,38.8517709 C225.498973,37.6029201 225.894482,37.9625843 225.668649,36.8080321 C225.441006,35.6540843 224.0051,32.6637336 223.248502,31.6989873 C222.492508,30.734241 222.794423,31.1694649 222.757589,30.1285545 C222.719548,29.0882485 222.814349,27.6683306 223.021462,26.3820022 C223.229784,25.0950694 223.097545,25.2087112 222.927265,24.6223679 C222.757589,24.0354201 223.07943,22.0865843 223.07943,22.0865843 C223.07943,22.0865843 224.081183,22.2945246 224.553377,22.6729276 C225.024968,23.0513306 225.38485,23.9217784 225.38485,23.9217784 C226.613642,25.5490321 228.389504,24.6973231 228.389504,24.6973231 C229.9027,24.3382634 229.751742,22.2189649 229.751742,22.2189649 C229.751742,22.2189649 229.297663,22.4643828 229.78918,22.162144 C230.280093,21.8593007 230.488414,20.6672709 230.205218,19.853644" id="Fill-16" fill="#020302" sketch:type="MSShapeGroup" mask="url(#mask-2)"></path>
                    </g>
                    <path d="M212.814576,5.96468284 C212.814576,5.96468284 212.994517,6.01425 213.279524,6.04749627 C213.153324,5.98100373 213.000555,5.9441306 212.814576,5.96468284" id="Fill-19" fill="#020302" sketch:type="MSShapeGroup"></path>
                    <path d="M220.734822,2.53971269 C220.734822,2.53971269 220.775278,2.61043657 220.859814,2.69022761 C220.840492,2.63159328 220.801243,2.57839925 220.734822,2.53971269" id="Fill-21" fill="#020302" sketch:type="MSShapeGroup"></path>
                    <path d="M59.349704,114.651027 L59.349704,118.074184 L54.471972,118.688937 L54.471972,143.265788 L57.1819573,142.387482 L71.9709411,118.688937 L67.0932091,118.074184 L67.0932091,114.651027 L81.3405582,114.651027 L81.3405582,118.074184 L76.8498807,118.688937 L63.1435626,140.720333 L79.7911325,172.055243 L83.7407791,172.668788 L83.7407791,176.092549 L65.6989676,176.092549 L65.6989676,172.668788 L70.3448292,172.055243 L57.4144315,146.951288 L54.471972,148.004893 L54.471972,171.96699 L59.349704,172.581743 L59.349704,176.092549 L41.6961546,176.092549 L41.6961546,172.581743 L46.5738866,171.96699 L46.5738866,118.688937 L41.6961546,118.074184 L41.6961546,114.651027 L59.349704,114.651027 Z" id="Fill-23" fill="#020302" sketch:type="MSShapeGroup"></path>
                    <path d="M103.875946,152.394004 L116.962131,152.394004 L110.844738,128.607206 L110.690158,128.607206 L103.875946,152.394004 Z M118.201189,157.133713 L102.482912,157.133713 L98.6878454,171.96699 L104.03113,172.669393 L104.03113,176.092549 L89.5513063,176.092549 L89.5513063,172.669393 L94.1971679,171.96699 L110.844738,114.124527 L114.56191,114.124527 L130.512661,171.96699 L135.545577,172.669393 L135.545577,176.092549 L116.188022,176.092549 L116.188022,172.669393 L121.762573,171.96699 L118.201189,157.133713 Z" id="Fill-25" fill="#020302" sketch:type="MSShapeGroup"></path>
                    <path d="M163.888231,118.864115 L158.081206,118.162921 L158.081206,114.650906 L172.405242,114.650906 L172.405242,118.162921 L168.147038,118.864115 L152.196287,176.97013 L148.247848,176.97013 L131.831545,118.864115 L127.340867,118.162921 L127.340867,114.650906 L146.853607,114.650906 L146.853607,118.162921 L140.504343,118.864115 L151.963813,163.102204 L152.196287,163.102204 L163.888231,118.864115 Z" id="Fill-27" fill="#020302" sketch:type="MSShapeGroup"></path>
                    <path d="M178.526439,152.394004 L191.612624,152.394004 L185.495231,128.607206 L185.340651,128.607206 L178.526439,152.394004 Z M192.851682,157.133713 L177.133405,157.133713 L173.338339,171.96699 L178.681623,172.669393 L178.681623,176.092549 L164.2018,176.092549 L164.2018,172.669393 L168.847661,171.96699 L185.495231,114.124527 L189.212404,114.124527 L205.163155,171.96699 L210.196071,172.669393 L210.196071,176.092549 L190.838515,176.092549 L190.838515,172.669393 L196.413066,171.96699 L192.851682,157.133713 Z" id="Fill-29" fill="#020302" sketch:type="MSShapeGroup"></path>
                    <path d="M235.983984,114.651027 L235.983984,118.074184 L229.170376,118.864236 L229.170376,172.055243 L233.119418,172.055243 C242.952776,172.055243 246.515368,169.772736 248.140876,156.43131 L251.006046,156.43131 L250.385913,176.092549 L216.084794,176.092549 L216.084794,172.668788 L221.195,171.96699 L221.195,118.864236 L216.084794,118.162437 L216.084794,114.651027 L235.983984,114.651027 Z" id="Fill-31" fill="#020302" sketch:type="MSShapeGroup"></path>
                    <path d="M264.249589,118.776647 L259.139383,118.162498 L259.139383,114.651087 L277.335775,114.651087 L277.335775,118.074244 L272.225568,118.688998 L272.225568,171.96705 L277.335775,172.581804 L277.335775,176.09261 L259.139383,176.09261 L259.139383,172.668849 L264.249589,172.055304 L264.249589,118.776647 Z" id="Fill-33" fill="#020302" sketch:type="MSShapeGroup"></path>
                    <path d="M317.05934,114.651027 L317.601579,131.152661 L314.659119,131.152661 C312.878427,120.44434 310.168442,118.513639 301.728118,118.513639 L296.230857,118.513639 L296.230857,142.651034 L299.404583,142.651034 C304.670577,142.651034 306.142109,139.929676 307.148088,132.206266 L309.626203,132.206266 L309.626203,158.186713 L306.993508,158.186713 C305.909635,148.970243 304.670577,147.039542 298.708368,147.039542 L296.230857,147.039542 L296.230857,172.055243 L301.650224,172.055243 C312.02582,172.055243 314.8137,168.368534 316.362521,156.43131 L319.382271,156.43131 L318.840032,176.092549 L283.144672,176.092549 L283.144672,172.668788 L288.254878,171.96699 L288.254878,118.776587 L283.144672,118.074184 L283.144672,114.651027 L317.05934,114.651027 Z" id="Fill-35" fill="#020302" sketch:type="MSShapeGroup"></path>
                    <path d="M338.510854,142.563385 L339.827202,142.563385 C348.112946,142.563385 351.82891,138.261922 351.82891,129.484907 C351.82891,121.234393 348.112946,118.776587 340.21486,118.776587 L338.510854,118.776587 L338.510854,142.563385 Z M338.510854,146.600691 L338.510854,171.87934 L345.092592,172.581743 L345.092592,176.092549 L325.038218,176.092549 L325.038218,172.581743 L330.612769,171.87934 L330.612769,118.776587 L325.038218,118.074184 L325.038218,114.651027 L341.220839,114.651027 C351.59704,114.651027 360.346524,116.669982 360.346524,129.22196 C360.346524,139.666124 355.003844,143.265788 347.027865,144.055236 L347.027865,144.318184 C355.700663,145.547087 358.875596,149.233796 358.875596,159.415616 L358.875596,167.227281 C358.875596,170.211587 359.030177,171.96699 361.353108,171.96699 C363.675434,171.96699 364.140383,169.421534 364.760515,164.067676 L367.625081,164.681825 C367.160736,170.38749 366.231443,176.970251 358.797703,176.970251 C351.82891,176.970251 350.745037,172.142893 350.745037,162.575221 L350.745037,155.114758 C350.745037,149.409699 349.041031,146.600691 343.001532,146.600691 L338.510854,146.600691 Z" id="Fill-37" fill="#020302" sketch:type="MSShapeGroup"></path>
                    <path d="M256.474081,55.2103254 L260.769118,55.2103254 L260.769118,56.8478552 L253.023197,56.8478552 L257.026585,51.9945045 C257.419677,51.5115269 257.749972,51.0932284 258.015657,50.7384 C258.283153,50.3841761 258.484832,50.0879821 258.625524,49.848609 C258.909324,49.3807433 259.051224,48.9588179 259.051224,48.5846463 C259.051224,48.0466612 258.861622,47.5945119 258.483624,47.2312209 C258.103816,46.8679299 257.636452,46.6853776 257.079118,46.6853776 C255.913728,46.6853776 255.245892,47.3762955 255.077424,48.7569224 L253.344434,48.7569224 C253.622196,46.3232955 254.850384,45.107691 257.026585,45.107691 C258.077247,45.107691 258.958838,45.4413627 259.671356,46.1093104 C260.388102,46.7778627 260.746776,47.6053925 260.746776,48.5925045 C260.746776,49.2205567 260.579515,49.8365194 260.246202,50.4391836 C260.075922,50.7535119 259.82956,51.1258701 259.502284,51.5568627 C259.17682,51.9890642 258.764405,52.4986388 258.26685,53.0867955 L256.474081,55.2103254 Z" id="Fill-39" fill="#020302" sketch:type="MSShapeGroup"></path>
                    <path d="M264.444566,51.0076948 C264.444566,52.2891873 264.665567,53.3530679 265.109381,54.2005455 C265.551384,55.0341201 266.117776,55.4493963 266.804934,55.4493963 C267.486053,55.4493963 268.052445,55.0341201 268.500486,54.2005455 C268.949131,53.3736201 269.173152,52.3284784 269.173152,51.0675381 C269.173152,49.8065978 268.949131,48.7596425 268.500486,47.9266724 C268.052445,47.099747 267.486053,46.6856799 266.804934,46.6856799 C266.126834,46.6856799 265.565272,47.099747 265.116627,47.9266724 C264.668586,48.7493664 264.444566,49.7769784 264.444566,51.0076948 M262.733918,51.000441 C262.733918,49.1604112 263.161429,47.6921351 264.018866,46.5956127 C264.785125,45.6042694 265.714418,45.1073888 266.804934,45.1073888 C267.895449,45.1073888 268.823535,45.6042694 269.591605,46.5956127 C270.447231,47.6921351 270.87595,49.1857993 270.87595,51.0747918 C270.87595,52.959553 270.447231,54.4507993 269.591605,55.5467172 C268.823535,56.5386649 267.897261,57.034941 266.812784,57.034941 C265.726495,57.034941 264.79539,56.5386649 264.018866,55.5467172 C263.161429,54.4507993 262.733918,52.9341649 262.733918,51.000441" id="Fill-41" fill="#020302" sketch:type="MSShapeGroup"></path>
                    <path d="M274.491679,46.9321858 L272.497231,46.9321858 L273.453093,45.3019097 L276.231915,45.3019097 L276.231915,56.8480366 L274.491679,56.8480366 L274.491679,46.9321858 Z" id="Fill-43" fill="#020302" sketch:type="MSShapeGroup"></path>
                    <path d="M285.345568,53.2959448 C285.345568,52.6830045 285.133624,52.1637582 284.71034,51.7406239 C284.281622,51.3114448 283.766555,51.0974597 283.164538,51.0974597 C282.556482,51.0974597 282.040811,51.3096313 281.618131,51.7327657 C281.193639,52.1565045 280.982903,52.6709149 280.982903,53.2735791 C280.982903,53.8762433 281.193639,54.3906537 281.618131,54.8137881 C282.040811,55.2375269 282.559501,55.4496985 283.171784,55.4496985 C283.769574,55.4496985 284.278602,55.2375269 284.703094,54.8137881 C285.130605,54.384609 285.345568,53.8792657 285.345568,53.2959448 L285.345568,53.2959448 Z M284.449486,44.8979373 L285.726585,45.8554299 L282.970105,49.6092358 C283.11925,49.5898925 283.246658,49.5747806 283.351121,49.5645045 C283.455583,49.5542284 283.537704,49.5493925 283.597483,49.5493925 C284.532814,49.5493925 285.342549,49.9084522 286.02548,50.6265716 C286.702373,51.3338104 287.041121,52.1861239 287.041121,53.1835119 C287.041121,54.2413478 286.661916,55.1474597 285.905922,55.9054746 C285.152947,56.6580493 284.249015,57.0346388 283.194125,57.0346388 C282.148293,57.0346388 281.231077,56.664094 280.445495,55.9205866 C279.672594,55.1776836 279.287351,54.2981687 279.287351,53.2808328 C279.287351,52.3686761 279.662328,51.4009075 280.415303,50.3793403 L284.449486,44.8979373 Z" id="Fill-45" fill="#020302" sketch:type="MSShapeGroup"></path>
                    <g id="Group-49">
                        <mask id="mask-4" sketch:name="Clip 48" fill="white">
                            <use xlink:href="#path-3"></use>
                        </mask>
                        <g id="Clip-48"></g>
                        <path d="M107.089585,238.39104 L1.52998233,238.39104 C0.685225331,238.39104 -0.000120765832,238.282838 -0.000120765832,237.437174 L-0.000120765832,53.6578455 C-0.000120765832,52.8121813 0.685225331,52.2119351 1.52998233,52.2119351 L107.089585,52.2119351 C107.934342,52.2119351 108.619688,52.5752261 108.619688,53.4208903 C108.619688,54.2665545 107.934342,54.6298455 107.089585,54.6298455 L3.01902504,54.6298455 L3.01902504,235.973129 L107.089585,235.973129 C107.934342,235.973129 108.619688,236.33642 108.619688,237.182084 C108.619688,238.027749 107.934342,238.39104 107.089585,238.39104" id="Fill-47" fill="#020302" sketch:type="MSShapeGroup" mask="url(#mask-4)"></path>
                    </g>
                    <g id="Group-52">
                        <mask id="mask-6" sketch:name="Clip 51" fill="white">
                            <use xlink:href="#path-5"></use>
                        </mask>
                        <g id="Clip-51"></g>
                        <path d="M408.470138,242.017905 L304.440035,242.017905 C303.595278,242.017905 302.910536,241.050137 302.910536,240.204472 C302.910536,239.358808 303.595278,238.39104 304.440035,238.39104 L406.981096,238.39104 L406.981096,54.6298455 L305.970138,54.6298455 C305.125381,54.6298455 304.440035,54.2665545 304.440035,53.4208903 C304.440035,52.5752261 305.125381,52.2119351 305.970138,52.2119351 L408.470138,52.2119351 C409.314895,52.2119351 410.000242,52.8121813 410.000242,53.6578455 L410.000242,240.500062 C410.000242,241.345726 409.314895,242.017905 408.470138,242.017905" id="Fill-50" fill="#020302" sketch:type="MSShapeGroup" mask="url(#mask-6)"></path>
                    </g>
                    <path d="M128.077177,242.297053 L130.505174,229.883501 L134.463878,238.856971 L138.565085,229.883501 L140.746116,242.297053 L138.961197,242.297053 L137.847736,235.327426 L134.43429,242.827784 L131.117457,235.320172 L129.877191,242.297053 L128.077177,242.297053 Z" id="Fill-53" fill="#020302" sketch:type="MSShapeGroup"></path>
                    <path d="M145.286489,236.494128 C145.286489,237.769576 145.715208,238.819554 146.571437,239.642248 C147.422837,240.464942 148.40587,240.875987 149.521747,240.875987 C150.73182,240.875987 151.752292,240.457688 152.584368,239.619882 C153.417049,238.7718 153.831879,237.739957 153.831879,236.523748 C153.831879,235.293031 153.421275,234.261188 152.599464,233.428218 C151.782483,232.590412 150.772277,232.172113 149.567034,232.172113 C148.367225,232.172113 147.352792,232.590412 146.526754,233.428218 C145.700112,234.255143 145.286489,235.277919 145.286489,236.494128 M143.531158,236.471763 C143.531158,234.845718 144.125929,233.450584 145.316077,232.283942 C146.501393,231.1173 147.92643,230.533979 149.589376,230.533979 C151.232395,230.533979 152.641128,231.122136 153.817387,232.299054 C154.99727,233.475972 155.587814,234.88924 155.587814,236.53886 C155.587814,238.19936 154.99425,239.607793 153.809538,240.764158 C152.618786,241.925964 151.183485,242.506263 149.499405,242.506263 C148.009758,242.506263 146.672881,241.990643 145.488168,240.958196 C144.183897,239.817546 143.531158,238.321464 143.531158,236.471763" id="Fill-55" fill="#020302" sketch:type="MSShapeGroup"></path>
                    <path d="M160.435657,240.659402 L161.220031,240.659402 C162.001386,240.659402 162.651106,240.577193 163.169795,240.412775 C163.687881,240.237477 164.155848,239.961231 164.574302,239.582828 C165.429928,238.800634 165.858647,237.780275 165.858647,236.524171 C165.858647,235.257186 165.435966,234.231387 164.588794,233.443149 C163.826761,232.740141 162.703639,232.38894 161.220031,232.38894 L160.435657,232.38894 L160.435657,240.659402 Z M158.695421,242.296932 L158.695421,230.750805 L161.115568,230.750805 C162.276128,230.750805 163.192137,230.86626 163.864199,231.094753 C164.585775,231.319619 165.242137,231.701044 165.829059,232.239029 C167.01981,233.326484 167.614582,234.754865 167.614582,236.524171 C167.614582,238.299522 166.994449,239.735156 165.754184,240.831678 C165.131032,241.380544 164.480105,241.761365 163.797174,241.97535 C163.158926,242.189335 162.255598,242.296932 161.085377,242.296932 L158.695421,242.296932 Z" id="Fill-57" fill="#020302" sketch:type="MSShapeGroup"></path>
                    <path d="M177.084736,232.388698 L172.460613,232.388698 L172.460613,235.16325 L176.950082,235.16325 L176.950082,236.80078 L172.460613,236.80078 L172.460613,240.65916 L177.084736,240.65916 L177.084736,242.297295 L170.720377,242.297295 L170.720377,230.751168 L177.084736,230.751168 L177.084736,232.388698 Z" id="Fill-59" fill="#020302" sketch:type="MSShapeGroup"></path>
                    <path d="M182.029856,236.05292 L182.582359,236.05292 C184.230813,236.05292 185.05504,235.421846 185.05504,234.160905 C185.05504,232.979756 184.253155,232.388577 182.649988,232.388577 L182.029856,232.388577 L182.029856,236.05292 Z M184.196395,237.376726 L187.766837,242.297174 L185.637735,242.297174 L182.343847,237.570763 L182.029856,237.570763 L182.029856,242.297174 L180.28962,242.297174 L180.28962,230.751047 L182.328751,230.751047 C183.852816,230.751047 184.953596,231.038174 185.630489,231.611219 C186.377426,232.249547 186.750592,233.091584 186.750592,234.13854 C186.750592,234.956398 186.516306,235.659405 186.048943,236.247562 C185.580975,236.835114 184.962654,237.211704 184.196395,237.376726 L184.196395,237.376726 Z" id="Fill-61" fill="#020302" sketch:type="MSShapeGroup"></path>
                    <g id="Group-65">
                        <mask id="mask-8" sketch:name="Clip 64" fill="white">
                            <use xlink:href="#path-7"></use>
                        </mask>
                        <g id="Clip-64"></g>
                        <path d="M190.417103,242.297053 L190.417103,229.96571 L198.828443,238.774762 L198.828443,230.750926 L200.568679,230.750926 L200.568679,243.00006 L192.157339,234.213374 L192.157339,242.297053 L190.417103,242.297053 Z" id="Fill-63" fill="#020302" sketch:type="MSShapeGroup" mask="url(#mask-8)"></path>
                    </g>
                    <path d="M211.630346,235.357469 L216.119816,230.750745 L218.442747,230.750745 L213.228682,235.978267 L218.472938,242.296872 L216.142158,242.296872 L211.989021,237.159416 L211.630346,237.518476 L211.630346,242.296872 L209.89011,242.296872 L209.89011,230.750745 L211.630346,230.750745 L211.630346,235.357469 Z" id="Fill-66" fill="#020302" sketch:type="MSShapeGroup"></path>
                    <g id="Group-70">
                        <mask id="mask-10" sketch:name="Clip 69" fill="white">
                            <use xlink:href="#path-9"></use>
                        </mask>
                        <g id="Clip-69"></g>
                        <path d="M220.943928,242.297053 L220.943928,229.96571 L229.355268,238.774762 L229.355268,230.750926 L231.095504,230.750926 L231.095504,243.00006 L222.684163,234.213374 L222.684163,242.297053 L220.943928,242.297053 Z" id="Fill-68" fill="#020302" sketch:type="MSShapeGroup" mask="url(#mask-10)"></path>
                    </g>
                    <mask id="mask-12" sketch:name="Clip 72" fill="white">
                        <use xlink:href="#path-11"></use>
                    </mask>
                    <g id="Clip-72"></g>
                    <path d="M236.518675,242.296993 L234.778439,242.296993 L234.778439,230.750866 L236.518675,230.750866 L236.518675,242.296993 Z" id="Fill-71" fill="#020302" sketch:type="MSShapeGroup" mask="url(#mask-12)"></path>
                    <path d="M246.138639,236.284737 L250.904663,236.284737 L250.904663,236.666163 C250.904663,237.533588 250.802616,238.30067 250.597918,238.969222 C250.399258,239.586999 250.063529,240.166088 249.589523,240.704073 C248.51833,241.911215 247.157299,242.513879 245.503411,242.513879 C243.889979,242.513879 242.508418,241.930558 241.358124,240.763916 C240.207225,239.593043 239.63238,238.187028 239.63238,236.546476 C239.63238,234.871469 240.218094,233.450342 241.387711,232.284304 C242.557328,231.112827 243.982969,230.526484 245.660406,230.526484 C246.56132,230.526484 247.404265,230.710849 248.18562,231.080185 C248.932557,231.449521 249.667417,232.047954 250.388993,232.874879 L249.149331,234.063887 C248.203131,232.802946 247.049817,232.171872 245.690598,232.171872 C244.469655,232.171872 243.446165,232.593797 242.620127,233.435834 C241.794088,234.26276 241.380465,235.300648 241.380465,236.546476 C241.380465,237.832804 241.840583,238.891849 242.762027,239.724819 C243.624295,240.497946 244.557814,240.883603 245.56319,240.883603 C246.41942,240.883603 247.188698,240.595267 247.871629,240.016178 C248.55456,239.432857 248.935576,238.734685 249.014677,237.922267 L246.138639,237.922267 L246.138639,236.284737 Z" id="Fill-73" fill="#020302" sketch:type="MSShapeGroup" mask="url(#mask-12)"></path>
                    <path d="M255.750996,235.267764 L260.725944,235.267764 L260.725944,230.751107 L262.466784,230.751107 L262.466784,242.297234 L260.725944,242.297234 L260.725944,236.905294 L255.750996,236.905294 L255.750996,242.297234 L254.01076,242.297234 L254.01076,230.751107 L255.750996,230.751107 L255.750996,235.267764 Z" id="Fill-74" fill="#020302" sketch:type="MSShapeGroup" mask="url(#mask-12)"></path>
                    <path d="M269.331415,232.388698 L269.331415,242.297295 L267.59118,242.297295 L267.59118,232.388698 L264.939162,232.388698 L264.939162,230.751168 L271.975583,230.751168 L271.975583,232.388698 L269.331415,232.388698 Z" id="Fill-75" fill="#020302" sketch:type="MSShapeGroup" mask="url(#mask-12)"></path>
                    <path d="M280.953194,232.470967 L279.541442,233.308773 C279.276965,232.84937 279.025772,232.550154 278.786655,232.411124 C278.537274,232.250937 278.216037,232.171751 277.823548,232.171751 C277.340485,232.171751 276.938938,232.309572 276.62072,232.5834 C276.302502,232.852393 276.142487,233.192109 276.142487,233.600131 C276.142487,234.164109 276.560941,234.616863 277.397244,234.961415 L278.548143,235.432303 C279.484682,235.810706 280.16882,236.272527 280.60237,236.820184 C281.035315,237.364818 281.25209,238.034579 281.25209,238.827049 C281.25209,239.889116 280.897642,240.766818 280.191162,241.459549 C279.478644,242.157721 278.595845,242.506504 277.539144,242.506504 C276.538599,242.506504 275.711957,242.21031 275.059218,241.616713 C274.416744,241.022512 274.016405,240.188333 273.856994,239.111154 L275.619571,238.722475 C275.698673,239.400094 275.839365,239.869773 276.038025,240.12849 C276.3967,240.626579 276.919616,240.876228 277.606773,240.876228 C278.149012,240.876228 278.600072,240.693676 278.958747,240.330385 C279.317421,239.967094 279.496758,239.504669 279.496758,238.946736 C279.496758,238.722475 279.465359,238.516348 279.402561,238.330773 C279.340971,238.142176 279.244358,237.971713 279.112723,237.81334 C278.979881,237.65799 278.809601,237.509893 278.600072,237.373281 C278.391147,237.236064 278.141766,237.104288 277.853135,236.98037 L276.740278,236.516736 C275.161265,235.848184 274.37206,234.871348 274.37206,233.585019 C274.37206,232.717594 274.703563,231.992221 275.365359,231.4089 C276.02776,230.821348 276.851987,230.526967 277.83804,230.526967 C279.167672,230.526967 280.206258,231.174363 280.953194,232.470967" id="Fill-76" fill="#020302" sketch:type="MSShapeGroup" mask="url(#mask-12)"></path>
                </g>
            </g>
        </g>
    </g>
</svg>