<?xml version="1.0" encoding="utf-8"?>
<!-- Generator: Adobe Illustrator 19.2.1, SVG Export Plug-In . SVG Version: 6.00 Build 0)  -->
<svg version="1.1" id="Ebene_1" xmlns:sketch="http://www.bohemiancoding.com/sketch/ns"
	 xmlns="http://www.w3.org/2000/svg" xmlns:xlink="http://www.w3.org/1999/xlink" x="0px" y="0px" viewBox="0 0 26 54"
	 style="enable-background:new 0 0 26 54;" xml:space="preserve">
<style type="text/css">
	.st0{filter:url(#Adobe_OpacityMaskFilter);}
	.st1{fill:#FFFFFF;}
	.st2{mask:url(#mask-2);fill:#4F4F4F;}
</style>
<title>Pfeilrechts</title>
<desc>Created with Sketch.</desc>
<g id="Page-1" sketch:type="MSPage">
	<g id="Desktop-HD-Copy" transform="translate(-736.000000, -358.000000)" sketch:type="MSArtboardGroup">
		<g id="Pfeilrechts" transform="translate(736.000000, 358.000000)" sketch:type="MSLayerGroup">
			<g id="Clip-2">
			</g>
			<defs>
				<filter id="Adobe_OpacityMaskFilter" filterUnits="userSpaceOnUse" x="0" y="0" width="25.3" height="54">
					<feColorMatrix  type="matrix" values="1 0 0 0 0  0 1 0 0 0  0 0 1 0 0  0 0 0 1 0"/>
				</filter>
			</defs>
			<mask maskUnits="userSpaceOnUse" x="0" y="0" width="25.3" height="54" id="mask-2">
				<g class="st0">
					<path id="path-1" class="st1" d="M0,0h25.3v54H0"/>
				</g>
			</mask>
			<path id="Fill-1" sketch:type="MSShapeGroup" class="st2" d="M1.2,54c-0.3,0-0.6-0.1-0.9-0.4c-0.5-0.5-0.5-1.4,0-1.9l22-24.8
				L0.5,2.3c-0.5-0.5-0.5-1.4,0-1.9c0.5-0.5,1.2-0.5,1.7,0L25,25.9c0.5,0.5,0.5,1.4,0,1.9L2.1,53.6C1.8,53.9,1.5,54,1.2,54"/>
		</g>
	</g>
</g>
</svg>
