<?xml version="1.0" encoding="UTF-8" standalone="no"?>
<svg width="120px" height="23px" viewBox="0 0 120 23" version="1.1" xmlns="http://www.w3.org/2000/svg" xmlns:xlink="http://www.w3.org/1999/xlink" xmlns:sketch="http://www.bohemiancoding.com/sketch/ns">
    <!-- Generator: Sketch 3.5.2 (25235) - http://www.bohemiancoding.com/sketch -->
    <title>Logo Klein</title>
    <desc>Created with Sketch.</desc>
    <defs></defs>
    <g id="Page-1" stroke="none" stroke-width="1" fill="none" fill-rule="evenodd" sketch:type="MSPage">
        <g id="Desktop-HD" sketch:type="MSArtboardGroup" transform="translate(-249.000000, -14.000000)" fill="#FEFEFE">
            <g id="header" sketch:type="MSLayerGroup">
                <g id="Logo-Klein" transform="translate(249.000000, 14.000000)" sketch:type="MSShapeGroup">
                    <path d="M9.3468,0.199945192 L9.3468,1.45233942 L11.1416889,1.67725288 L5.69924444,10.3475894 L4.70168889,10.6687048 L4.70168889,1.67725288 L6.49702222,1.45233942 L6.49702222,0.199945192 L-8.88888889e-05,0.199945192 L-8.88888889e-05,1.45233942 L1.79524444,1.67725288 L1.79524444,21.1695317 L-8.88888889e-05,21.3944452 L-8.88888889e-05,22.6786856 L6.49702222,22.6786856 L6.49702222,21.3944452 L4.70168889,21.1695317 L4.70168889,12.4027721 L5.78457778,12.017301 L10.5434667,21.201599 L8.83368889,21.4262913 L8.83368889,22.6786856 L15.4734667,22.6786856 L15.4734667,21.4262913 L14.0199111,21.201599 L7.89324444,9.73742596 L12.9374667,1.67725288 L14.5899111,1.45233942 L14.5899111,0.199945192 L9.3468,0.199945192 Z" id="Fill-1"></path>
                    <path d="M25.4482,0.00727596154 L19.3215333,21.1694875 L17.6119778,21.4264683 L17.6119778,22.6786413 L22.9408667,22.6786413 L22.9408667,21.4264683 L20.9744222,21.1694875 L22.3710889,15.7423721 L28.1555333,15.7423721 L29.4664222,21.1694875 L27.4146444,21.4264683 L27.4146444,22.6786413 L34.5388667,22.6786413 L34.5388667,21.4264683 L32.6864222,21.1694875 L26.8162,0.00727596154 L25.4482,0.00727596154 Z M25.3913111,5.30590096 L25.4482,5.30590096 L27.6995333,14.008526 L22.8835333,14.008526 L25.3913111,5.30590096 Z" id="Fill-2"></path>
                    <path d="M42.8322,0.199945192 L42.8322,1.48462788 L44.9693111,1.7413875 L40.6666444,17.9263106 L40.5810889,17.9263106 L36.3635333,1.7413875 L38.7004222,1.48462788 L38.7004222,0.199945192 L31.5190889,0.199945192 L31.5190889,1.48462788 L33.1717556,1.7413875 L39.2133111,23.0000221 L40.6666444,23.0000221 L46.5368667,1.7413875 L48.1039778,1.48462788 L48.1039778,0.199945192 L42.8322,0.199945192 Z" id="Fill-3"></path>
                    <path d="M52.9212,0.00727596154 L46.7945333,21.1694875 L45.0847556,21.4264683 L45.0847556,22.6786413 L50.4138667,22.6786413 L50.4138667,21.4264683 L48.4474222,21.1694875 L49.8438667,15.7423721 L55.6285333,15.7423721 L56.9394222,21.1694875 L54.8876444,21.4264683 L54.8876444,22.6786413 L62.0118667,22.6786413 L62.0118667,21.4264683 L60.1594222,21.1694875 L54.2892,0.00727596154 L52.9212,0.00727596154 Z M52.8643111,5.30590096 L52.9212,5.30590096 L55.1723111,14.008526 L50.3565333,14.008526 L52.8643111,5.30590096 Z" id="Fill-4"></path>
                    <g id="Group-13" transform="translate(64.000000, 0.000000)">
                        <path d="M7.50222222,0.199856731 L7.50222222,1.45225096 L4.99466667,1.74129904 L4.99466667,21.2017317 L6.448,21.2017317 C10.0668889,21.2017317 11.378,20.3666548 11.9762222,15.4855683 L13.0306667,15.4855683 L12.8024444,22.6788183 L0.178888889,22.6788183 L0.178888889,21.4262029 L2.05955556,21.1694433 L2.05955556,1.74129904 L0.178888889,1.48453942 L0.178888889,0.199856731 L7.50222222,0.199856731 Z" id="Fill-5"></path>
                        <path d="M17.9045778,1.70925385 L16.0239111,1.48456154 L16.0239111,0.199878846 L22.7205778,0.199878846 L22.7205778,1.45227308 L20.8399111,1.67718654 L20.8399111,21.1694654 L22.7205778,21.3943788 L22.7205778,22.6788404 L16.0239111,22.6788404 L16.0239111,21.426225 L17.9045778,21.2017538 L17.9045778,1.70925385 Z" id="Fill-7"></path>
                        <path d="M37.3397111,0.199856731 L37.5392667,6.23713558 L36.4563778,6.23713558 C35.8010444,2.31939519 34.8037111,1.61302981 31.6974889,1.61302981 L29.6743778,1.61302981 L29.6743778,10.443924 L30.8423778,10.443924 C32.7803778,10.443924 33.3219333,9.44828942 33.6921556,6.62260673 L34.6041556,6.62260673 L34.6041556,16.127799 L33.6352667,16.127799 C33.2363778,12.7558663 32.7803778,12.049501 30.5861556,12.049501 L29.6743778,12.049501 L29.6743778,21.2017317 L31.6688222,21.2017317 C35.4872667,21.2017317 36.5132667,19.8529144 37.0832667,15.4855683 L38.1946,15.4855683 L37.9950444,22.6788183 L24.8583778,22.6788183 L24.8583778,21.4262029 L26.7390444,21.1694433 L26.7390444,1.70923173 L24.8583778,1.45225096 L24.8583778,0.199856731 L37.3397111,0.199856731 Z" id="Fill-9"></path>
                        <path d="M45.2343333,10.4118788 L45.7187778,10.4118788 C48.7681111,10.4118788 50.1356667,8.83814808 50.1356667,5.62699423 C50.1356667,2.60846538 48.7681111,1.70925385 45.8614444,1.70925385 L45.2343333,1.70925385 L45.2343333,10.4118788 Z M45.2343333,11.8889654 L45.2343333,21.1373981 L47.6565556,21.3943788 L47.6565556,22.6788404 L40.2761111,22.6788404 L40.2761111,21.3943788 L42.3276667,21.1373981 L42.3276667,1.70925385 L40.2761111,1.45227308 L40.2761111,0.199878846 L46.2316667,0.199878846 C50.0503333,0.199878846 53.2703333,0.938532692 53.2703333,5.53079231 C53.2703333,9.35188846 51.3041111,10.6688596 48.3687778,10.9576865 L48.3687778,11.0538885 C51.5605556,11.5034942 52.729,12.8523115 52.729,16.5774269 L52.729,19.4353981 C52.729,20.5272346 52.7858889,21.1694654 53.6407778,21.1694654 C54.4954444,21.1694654 54.6665556,20.2381865 54.8947778,18.2794269 L55.949,18.5041192 C55.7781111,20.5915904 55.4361111,22.9999558 52.7003333,22.9999558 C50.1356667,22.9999558 49.7367778,21.2338212 49.7367778,17.7333981 L49.7367778,15.0039173 C49.7367778,12.9166673 49.1096667,11.8889654 46.887,11.8889654 L45.2343333,11.8889654 Z" id="Fill-11"></path>
                    </g>
                </g>
            </g>
        </g>
    </g>
</svg>