<svg id="Layer_1" data-name="Layer 1" xmlns="http://www.w3.org/2000/svg" viewBox="0 0 405 239.46"><defs><style>.cls-1{fill:#fff;}</style></defs><title>main-logo_2</title><path class="cls-1" d="M347.3,224.67h-4.57v2.74h4.43V229h-4.43v3.81h4.57v1.62H341V223.05h6.28v1.62Z" transform="translate(-219 -177.07)"/><path class="cls-1" d="M356,224.75l-1.39.83a2.39,2.39,0,0,0-.74-0.89,1.74,1.74,0,0,0-1-.24,1.76,1.76,0,0,0-1.19.41,1.26,1.26,0,0,0-.47,1,1.58,1.58,0,0,0,1.24,1.34l1.14,0.46a4.84,4.84,0,0,1,2,1.37,3.08,3.08,0,0,1,.64,2,3.48,3.48,0,0,1-1,2.6,3.6,3.6,0,0,1-2.62,1,3.5,3.5,0,0,1-2.45-.88A4,4,0,0,1,349,231.3l1.74-.38a2.94,2.94,0,0,0,.41,1.39,2,2,0,0,0,2.88.2,1.86,1.86,0,0,0,.53-1.36,1.89,1.89,0,0,0-.09-0.61,1.52,1.52,0,0,0-.29-0.51,2.29,2.29,0,0,0-.5-0.43,4.8,4.8,0,0,0-.74-0.39l-1.1-.46q-2.34-1-2.34-2.89a2.74,2.74,0,0,1,1-2.15,3.55,3.55,0,0,1,2.44-.87A3.41,3.41,0,0,1,356,224.75Z" transform="translate(-219 -177.07)"/><path class="cls-1" d="M361.72,224.67v9.77H360v-9.77h-2.62v-1.62h6.95v1.62h-2.61Z" transform="translate(-219 -177.07)"/><path class="cls-1" d="M366.09,232.73a0.85,0.85,0,0,1,.63.27,0.91,0.91,0,0,1,0,1.28,0.92,0.92,0,0,1-.64.26,0.9,0.9,0,0,1-.36-0.07,0.88,0.88,0,0,1-.29-0.19,0.86,0.86,0,0,1-.2-0.29,0.93,0.93,0,0,1-.07-0.36,0.87,0.87,0,0,1,.27-0.64A0.91,0.91,0,0,1,366.09,232.73Z" transform="translate(-219 -177.07)"/><path class="cls-1" d="M405.9,240.88l0,0S405.88,240.93,405.9,240.88Z" transform="translate(-219 -177.07)"/><path class="cls-1" d="M425.72,194.13h0.34A0.58,0.58,0,0,0,425.72,194.13Z" transform="translate(-219 -177.07)"/><path class="cls-1" d="M424.63,195.71h0C424.43,195.51,424.63,195.71,424.63,195.71Z" transform="translate(-219 -177.07)"/><path class="cls-1" d="M430.88,182.24l-0.28-.15A2.67,2.67,0,0,0,430.88,182.24Z" transform="translate(-219 -177.07)"/><path class="cls-1" d="M446.45,196.44c-0.28-.8-1.49-2.07-1.9-2.91a1.25,1.25,0,0,1-.11-1.18,2.52,2.52,0,0,0-.35-1.77,4.63,4.63,0,0,1-.3-2.48,1.31,1.31,0,0,0,.26-1.33c-0.07-.77-0.39-0.65-0.82-1a9.8,9.8,0,0,1-1.66-1.89,3.56,3.56,0,0,1,0-1.49,6.76,6.76,0,0,0,.63-2.11c0.24-1.74-.26-2.84-0.82-3.14s-0.54.37-.86,1a5.09,5.09,0,0,0-.52.86,0.88,0.88,0,0,1-.41.78,1.9,1.9,0,0,1-1.1-.21l0-.08a2.09,2.09,0,0,0-1.4-1.62s-1-.24-0.07,0,1.21,1.9.76,1.87a0.83,0.83,0,0,1-.51-0.22,0.51,0.51,0,0,1,0,.37c-0.06.09-.24,0.26-0.32-0.19a15.69,15.69,0,0,0-.91-2.11c-1.7.52-1.36,3.57-1.36,3.57s0.13,0.39-.26.07a2.79,2.79,0,0,0-1.31-.37,0.83,0.83,0,1,0-.09,0c0.9,0,.22.63,0.22,0.63a3.93,3.93,0,0,0-1.81-.58s-0.8.09-.06,0.08a1.48,1.48,0,0,1,1.18.77c-0.41-.21-1.33-0.54-1.33-0.54a1.37,1.37,0,0,1,.52.67s0.37,0.26-.09,0a2.15,2.15,0,0,0-1.12-.22s-0.78,0,0,.06,1.34,0.56,1.06.65a0.93,0.93,0,0,1-.58-0.13c0.44,0.27.55,0.48-.13,0.58a4,4,0,0,1-1,0,1.11,1.11,0,0,1,.48.57,1.64,1.64,0,0,0-1.7.84c0.62-.22,1.57.75,2.39,0.8s0.34,0.21-.07.49-1.62-.28-1.68-0.28-0.35-.09,0,0.06a1,1,0,0,1,.49.6,1.79,1.79,0,0,1-.84-0.62,2.5,2.5,0,0,0,1,1.19,2.4,2.4,0,0,1-1.62-.9c0,0.47,1.48,1.68,1.48,1.68-1.12,0-.88.28-0.3,0.21s1.74,0.22.52,0.19a9.57,9.57,0,0,0-2.95.63,2.83,2.83,0,0,1,2.91.88h0a11,11,0,0,0-3.25.5s-0.2-.32,0,0.09a2.3,2.3,0,0,0,1.31.56c0.67,0,.22.28,0.22,0.28a5.28,5.28,0,0,0-2,.3,0.73,0.73,0,0,1,.88.54c-1.94-.09-1.85.54-1.85,0.54a1.08,1.08,0,0,1,1.06.37s0.41-.07-0.07,0-0.32.21-.32,0.21c0.17-.07.13,0.13,0.13,0.13a0.41,0.41,0,0,0-.28.41,0.36,0.36,0,0,1,.43.06,0.32,0.32,0,0,0-.3.24c0.37-.17,1,0.37,1.92.34s0.34,0.19-.3.28a12.16,12.16,0,0,1-1.32.09,0.81,0.81,0,0,1,.41.33h0a1.88,1.88,0,0,0-1.06.45,2.19,2.19,0,0,1,1,0c0.62,0-.09.22-0.71,0.26s-0.58.26-.58,0.26-0.09.13,0.09,0,0.24,0,.24,0a0.32,0.32,0,0,0-.15.17,1.06,1.06,0,0,1,.56.15,1.86,1.86,0,0,1-1.17,0l0,0a4.58,4.58,0,0,0,1.57.37c0.34,0,.2.26,0.2,0.26a1.89,1.89,0,0,0-1.16.41,4.09,4.09,0,0,0,1.53-.21c0.58-.15.45,0.09,0.32,0.21s-0.32,0-.3.19,0.17,0.13-.52.49-0.54.41-.54,0.41c0.26-.07.21,0.11,0.21,0.11a1.75,1.75,0,0,1-.69.47c0.3-.11.26,0.15,0.26,0.15a10.14,10.14,0,0,1-1.38,1.12,0.18,0.18,0,0,1,.26.11c-0.3.07-.09,0.26-0.09,0.26,0.19-.15.26,0.19,0.26,0.19a1.22,1.22,0,0,1-.73.54,2.47,2.47,0,0,0,1.33-.11,0.74,0.74,0,0,1-.47.86,1.12,1.12,0,0,0,.82-0.58c0.35-.37.28,0.15,0.28,0.15a2,2,0,0,1-1.38.9,4.32,4.32,0,0,0-3.37-.7,25.21,25.21,0,0,1-4.08-.24c-5.58-.52-7.18,4.22-9.95,8.4s-1.08,9.57-1.27,11.87-0.42,4.79-1.22,6.43a69.25,69.25,0,0,1-3.43,6.05,15.92,15.92,0,0,0-2.16,4.27,11.87,11.87,0,0,1-2.25,3.52,6.18,6.18,0,0,0,2.36-1.29c-0.11.79-.15,1.85-0.15,1.85a3.79,3.79,0,0,0,1.74-1c0.19,1.22-1.78,3.05-1.78,3.05,1.24-.32,4.42-2.79,5.34-3.51a1.75,1.75,0,0,0,.06.51c2.68-1.6,1.74-1,1.74-1a2.81,2.81,0,0,1-.15.58,3,3,0,0,0,1-1.06c0.06,0.21.4,1.41,0.74,2.64a10.54,10.54,0,0,1-.14,5,2.67,2.67,0,0,0,.28,2.91c0.7,0.61-.47.56-0.47,0.56-0.8,0-1.22,2.11-1.22,2.11-0.42,4.08,3.38,2.82,3.38,2.82,1.08-.94,1.83-4,1.22-5s0.23-1.27,0-2.39-0.38-1.41-.61-2.77-0.33-4.27-.42-5.73,0.52-3.19.7-4.83-0.42-.8.14-1.64,1.13-2.16,1.83-3.19a3,3,0,0,0,.66-1.64,6.67,6.67,0,0,1,1.22-2.63c0.56-.42,1.69-1.08,1.69-1.08,1,0.38,2.68,3.52,3.43,5.59s0.14,4.13,0,5.59a7.43,7.43,0,0,1-1.5,3.76c-0.61.75,0,1.46,0.09,2.91a13.2,13.2,0,0,0,.42,3.71c0.47,1.64.84,5.44,1.22,7.13s-0.14,2,.19,2.91a6.17,6.17,0,0,0,1.5,2c1.5,1,4.32,0,4.32,0,0.89-.23.56-0.75,0.56-0.75a4,4,0,0,0-2.21-2.21c-0.52-.28-0.61-0.24-1.36-1.5s-1.69-7.28-1.55-8.45,1-3.52,1.17-4.69a6.68,6.68,0,0,1,1.08-3c0.75-1.27,1.08-.56,1.55-3.14s0.89-5.82.89-5.82c0.66,0,.75-0.28,1.22.24s1,1.6,1.6,3.9a12.75,12.75,0,0,0,2.44,4.46,6.52,6.52,0,0,1,1.5,3.52c0.09,1.6,1,3.85,1.69,4.32a1.38,1.38,0,0,1,.34.51,7.14,7.14,0,0,1-.76.05c-2.72,1.83.19,4.18,1.36,4.32a1.29,1.29,0,0,0,.63-0.1c0.1,0.42.17,0.74,0.21,0.9a20.74,20.74,0,0,1,0,2.49,2.28,2.28,0,0,0,1.17,1.64c0.42,0.42.14,0.38-.09,0.94a5.85,5.85,0,0,0-.33,1.22c1.22,2.16,4.18,1.13,4.18,1.13,1.08-.24.42-1.41,0-2.25s-1.31-1.69-1.6-2.25a30.53,30.53,0,0,0-1-2.91,14.91,14.91,0,0,1-.82-2.47c0.2-.25.36-0.47,0.44-0.58,0.33-.42,1.78-1.22,1.88-2.16s1.55-2.53,2.3-3.52a33,33,0,0,0,1.74-2.86c0.7-1.13.33-1.6-.42-3.14s-0.66-3-.66-5.54a19.85,19.85,0,0,0-.66-5.68c-0.47-1.83-.52-1.55-0.09-1.88a6.5,6.5,0,0,0,1-1.08c0.39-.86.13-1.55,0.11-3.1a12.34,12.34,0,0,0-1-3.9c-0.39-1.23,0-.88-0.22-2a18.88,18.88,0,0,0-2.39-5c-0.75-1-.45-0.52-0.48-1.55a20.32,20.32,0,0,1,.26-3.7,2.34,2.34,0,0,0-.09-1.74,10.1,10.1,0,0,1,.15-2.5,4.37,4.37,0,0,1,1.46.58,3.75,3.75,0,0,1,.82,1.23,2.44,2.44,0,0,0,3,.77c1.49-.35,1.35-2.44,1.35-2.44s-0.45.24,0-.06A2.25,2.25,0,0,0,446.45,196.44Zm-6.56,41.18c-0.56,1.36-.56,4-0.84,4.88s-1,1.17-1.83,1.74a3.33,3.33,0,0,0-.37.3c0.06-.41.12-0.84,0.14-1.24a8.67,8.67,0,0,0-1.27-3.9c-0.61-1-.89-3.19-1.55-4.79a17.15,17.15,0,0,1-1.22-4.22,9.11,9.11,0,0,1,0-1.5,5.91,5.91,0,0,0,2.49-.42,10.7,10.7,0,0,0,1.6,2.39c0.42,0.61.56,1.83,1.22,3.24S440.46,236.26,439.89,237.62Z" transform="translate(-219 -177.07)"/><path class="cls-1" d="M429.28,182.74a3.36,3.36,0,0,0,.46.08A0.78,0.78,0,0,0,429.28,182.74Z" transform="translate(-219 -177.07)"/><path class="cls-1" d="M437.1,179.36a0.74,0.74,0,0,0,.12.15A0.26,0.26,0,0,0,437.1,179.36Z" transform="translate(-219 -177.07)"/><path class="cls-1" d="M277.75,289.94v3.38l-4.82.61v24.24l2.68-.87,14.6-23.37-4.82-.61v-3.38h14.07v3.38l-4.43.61L281.5,315.65l16.44,30.91,3.9,0.61v3.38H284v-3.38l4.59-.61L275.84,321.8l-2.91,1v23.63l4.82,0.61v3.46H260.32v-3.46l4.82-.61V293.92l-4.82-.61v-3.38h17.43Z" transform="translate(-219 -177.07)"/><path class="cls-1" d="M335.86,331.84H320.34l-3.75,14.63,5.28,0.69v3.38h-14.3v-3.38l4.59-.69,16.44-57.05h3.67L348,346.47l5,0.69v3.38H333.88v-3.38l5.5-.69Zm-14.14-4.67h12.92l-6-23.46h-0.15Z" transform="translate(-219 -177.07)"/><path class="cls-1" d="M381,294.1l-5.73-.69v-3.46h14.14v3.46l-4.2.69-15.75,57.31h-3.9L349.32,294.1l-4.43-.69v-3.46h19.27v3.46l-6.27.69,11.31,43.63h0.23Z" transform="translate(-219 -177.07)"/><path class="cls-1" d="M409.57,331.84H394.05l-3.75,14.63,5.28,0.69v3.38h-14.3v-3.38l4.59-.69,16.44-57.05H406l15.75,57.05,5,0.69v3.38H407.58v-3.38l5.5-.69Zm-14.14-4.67h12.92l-6-23.46h-0.15Z" transform="translate(-219 -177.07)"/><path class="cls-1" d="M452.16,289.94v3.38l-6.73.78v52.46h3.9c9.71,0,13.23-2.25,14.83-15.41H467l-0.61,19.39H432.51v-3.38l5-.69V294.1l-5-.69v-3.46h19.65Z" transform="translate(-219 -177.07)"/><path class="cls-1" d="M480.07,294l-5-.61v-3.46h18v3.38l-5,.61v52.55l5,0.61v3.46H475v-3.38l5-.61V294Z" transform="translate(-219 -177.07)"/><path class="cls-1" d="M532.21,289.94l0.54,16.28h-2.91c-1.76-10.56-4.43-12.47-12.77-12.47h-5.43v23.81h3.13c5.2,0,6.65-2.68,7.65-10.3h2.45v25.62h-2.6c-1.07-9.09-2.29-11-8.18-11h-2.45v24.67H517c10.24,0,13-3.64,14.53-15.41h3L534,350.54H498.72v-3.38l5-.69V294l-5-.69v-3.38h33.49Z" transform="translate(-219 -177.07)"/><path class="cls-1" d="M553.39,321.45v24.93l6.5,0.69v3.46h-19.8v-3.46l5.5-.69V294l-5.5-.69v-3.38h16c10.24,0,18.88,2,18.88,14.37,0,10.3-5.28,13.85-13.15,14.63v0.26c8.56,1.21,11.7,4.85,11.7,14.89v7.7c0,2.94.15,4.67,2.45,4.67s2.75-2.51,3.36-7.79l2.83,0.61c-0.46,5.63-1.38,12.12-8.72,12.12-6.88,0-8-4.76-8-14.2v-7.36c0-5.63-1.68-8.4-7.65-8.4h-4.43Zm0-4h1.3c8.18,0,11.85-4.24,11.85-12.9,0-8.14-3.67-10.56-11.47-10.56h-1.68v23.46Z" transform="translate(-219 -177.07)"/><path class="cls-1" d="M472.39,231.31h4.24v1.62H469l4-4.79q0.58-.71,1-1.24a9.52,9.52,0,0,0,.6-0.88,2.47,2.47,0,0,0,.42-1.25,1.78,1.78,0,0,0-.56-1.33,1.93,1.93,0,0,0-1.39-.54q-1.73,0-2,2H469.3q0.41-3.6,3.64-3.6a3.67,3.67,0,0,1,2.61,1,3.21,3.21,0,0,1,1.06,2.45,3.72,3.72,0,0,1-.49,1.82,8.9,8.9,0,0,1-.73,1.1q-0.48.64-1.22,1.51Z" transform="translate(-219 -177.07)"/><path class="cls-1" d="M478.57,227.16a6.86,6.86,0,0,1,1.27-4.34,3.31,3.31,0,0,1,5.5,0,8.31,8.31,0,0,1,0,8.83,3.38,3.38,0,0,1-2.74,1.47,3.42,3.42,0,0,1-2.76-1.47A7.1,7.1,0,0,1,478.57,227.16Zm1.69,0a6.74,6.74,0,0,0,.66,3.15,1.75,1.75,0,0,0,3.35,0,7.54,7.54,0,0,0,0-6.19,1.75,1.75,0,0,0-3.34,0A6.29,6.29,0,0,0,480.26,227.17Z" transform="translate(-219 -177.07)"/><path class="cls-1" d="M490.18,223.15h-2l0.94-1.61h2.74v11.39h-1.72v-9.78Z" transform="translate(-219 -177.07)"/><path class="cls-1" d="M500,221.14l1.26,0.94-2.72,3.7,0.38,0h0.24a3.2,3.2,0,0,1,2.4,1.06,3.52,3.52,0,0,1,1,2.52,3.82,3.82,0,0,1-3.8,3.8,3.83,3.83,0,0,1-2.71-1.1,3.49,3.49,0,0,1-1.14-2.6,4.89,4.89,0,0,1,1.11-2.86Zm0.89,8.28a2.16,2.16,0,0,0-3.68-1.54,2.15,2.15,0,0,0,0,3,2.09,2.09,0,0,0,1.53.63A2.15,2.15,0,0,0,500.9,229.43Z" transform="translate(-219 -177.07)"/><path class="cls-1" d="M324.89,413H220.67a2.09,2.09,0,0,1-1.67-2V229.78a1.9,1.9,0,0,1,1.67-1.78H324.89a1.5,1.5,0,1,1,0,3H222V409H324.89c0.83,0,1.51,1.17,1.51,2S325.73,413,324.89,413Z" transform="translate(-219 -177.07)"/><path class="cls-1" d="M622.47,416H519.75a1.5,1.5,0,1,1,0-3H621V231H521.26a1.5,1.5,0,1,1,0-3H622.47a1.79,1.79,0,0,1,1.53,1.78V414.07A2,2,0,0,1,622.47,416Z" transform="translate(-219 -177.07)"/><path class="cls-1" d="M345.61,415.84L348,403.6l3.91,8.85,4-8.85,2.15,12.24h-1.76l-1.1-6.87-3.37,7.4L348.62,409l-1.22,6.88h-1.78Z" transform="translate(-219 -177.07)"/><path class="cls-1" d="M360.87,410.09a5.57,5.57,0,0,1,1.76-4.13,5.8,5.8,0,0,1,4.22-1.73,6,6,0,0,1,5.92,5.92,5.6,5.6,0,0,1-1.76,4.17,6,6,0,0,1-8.22.19A5.6,5.6,0,0,1,360.87,410.09Zm1.73,0a4.12,4.12,0,0,0,1.27,3.11,4.2,4.2,0,0,0,5.94,0,4.42,4.42,0,0,0,0-6.11,4.25,4.25,0,0,0-6,0A4.11,4.11,0,0,0,362.61,410.12Z" transform="translate(-219 -177.07)"/><path class="cls-1" d="M375.85,415.84V404.45h2.39a8.71,8.71,0,0,1,2.71.34,5.08,5.08,0,0,1,1.94,1.13,5.89,5.89,0,0,1-.07,8.47,5.35,5.35,0,0,1-1.93,1.13,8.81,8.81,0,0,1-2.68.32h-2.36Zm1.72-1.62h0.77a6.47,6.47,0,0,0,1.93-.24,4.18,4.18,0,0,0,1.4-6.87,4.75,4.75,0,0,0-3.33-1h-0.77v8.16Z" transform="translate(-219 -177.07)"/><path class="cls-1" d="M394,406.07h-4.57v2.74h4.43v1.62h-4.43v3.81H394v1.62h-6.28V404.45H394v1.62Z" transform="translate(-219 -177.07)"/><path class="cls-1" d="M401,411l3.53,4.85h-2.1l-3.25-4.66h-0.31v4.66h-1.72V404.45h2a5,5,0,0,1,3.26.85,3.12,3.12,0,0,1,1.11,2.49,3.24,3.24,0,0,1-.69,2.08A3.09,3.09,0,0,1,401,411Zm-2.14-1.31h0.55q2.44,0,2.44-1.87t-2.37-1.75h-0.61v3.61Z" transform="translate(-219 -177.07)"/><path class="cls-1" d="M407.17,415.84V403.68l8.3,8.69v-7.91h1.72v12.08l-8.3-8.67v8h-1.72Z" transform="translate(-219 -177.07)"/><path class="cls-1" d="M428.11,409l4.43-4.54h2.29l-5.15,5.16,5.18,6.23h-2.3l-4.1-5.07-0.35.35v4.71h-1.72V404.45h1.72V409Z" transform="translate(-219 -177.07)"/><path class="cls-1" d="M437.31,415.84V403.68l8.3,8.69v-7.91h1.72v12.08l-8.3-8.67v8h-1.72Z" transform="translate(-219 -177.07)"/><path class="cls-1" d="M452.69,404.45v11.39H451V404.45h1.72Z" transform="translate(-219 -177.07)"/><path class="cls-1" d="M462.18,409.91h4.71v0.38a7.76,7.76,0,0,1-.3,2.27,4.82,4.82,0,0,1-1,1.71,5.16,5.16,0,0,1-4,1.78,5.55,5.55,0,0,1-4.09-1.73,5.94,5.94,0,0,1,6.74-9.55,7.2,7.2,0,0,1,2.18,1.77l-1.22,1.17a4.16,4.16,0,0,0-3.41-1.87,4.08,4.08,0,0,0-3,1.25,4.16,4.16,0,0,0-1.22,3.07,4.28,4.28,0,0,0,4.13,4.28,3.43,3.43,0,0,0,2.28-.86,3,3,0,0,0,1.13-2.07h-2.84v-1.62Z" transform="translate(-219 -177.07)"/><path class="cls-1" d="M471.68,408.91h4.91v-4.45h1.72v11.39h-1.72v-5.32h-4.91v5.32H470V404.45h1.72v4.45Z" transform="translate(-219 -177.07)"/><path class="cls-1" d="M485.08,406.07v9.77h-1.72v-9.77h-2.62v-1.62h6.95v1.62h-2.61Z" transform="translate(-219 -177.07)"/><path class="cls-1" d="M496.56,406.15l-1.39.83a2.39,2.39,0,0,0-.74-0.89,1.74,1.74,0,0,0-1-.24,1.76,1.76,0,0,0-1.19.41,1.26,1.26,0,0,0-.47,1A1.58,1.58,0,0,0,493,408.6l1.14,0.46a4.83,4.83,0,0,1,2,1.37,3.08,3.08,0,0,1,.64,2,3.48,3.48,0,0,1-1,2.6,3.59,3.59,0,0,1-2.62,1,3.5,3.5,0,0,1-2.45-.88,4,4,0,0,1-1.19-2.47l1.74-.38a3,3,0,0,0,.41,1.39,2,2,0,0,0,2.88.2,1.86,1.86,0,0,0,.53-1.36,1.89,1.89,0,0,0-.09-0.61,1.54,1.54,0,0,0-.29-0.51,2.34,2.34,0,0,0-.51-0.43,4.8,4.8,0,0,0-.74-0.39l-1.1-.46q-2.34-1-2.34-2.89a2.74,2.74,0,0,1,1-2.15,3.55,3.55,0,0,1,2.44-.87A3.41,3.41,0,0,1,496.56,406.15Z" transform="translate(-219 -177.07)"/></svg>